<?xml version="1.0" encoding="UTF-8" standalone="no"?>
<svg
   width="400"
   zoomAndPan="magnify"
   viewBox="0 0 300 299.99999"
   height="400"
   preserveAspectRatio="xMidYMid"
   version="1.0"
   id="svg14"
   sodipodi:docname="logo.svg"
   inkscape:export-filename="logo.png"
   inkscape:export-xdpi="78.143997"
   inkscape:export-ydpi="78.143997"
   inkscape:version="1.3.2 (091e20ef0f, 2023-11-25, custom)"
   xmlns:inkscape="http://www.inkscape.org/namespaces/inkscape"
   xmlns:sodipodi="http://sodipodi.sourceforge.net/DTD/sodipodi-0.dtd"
   xmlns="http://www.w3.org/2000/svg"
   xmlns:svg="http://www.w3.org/2000/svg">
  <sodipodi:namedview
     id="namedview14"
     pagecolor="#505050"
     bordercolor="#ffffff"
     borderopacity="1"
     inkscape:showpageshadow="0"
     inkscape:pageopacity="0"
     inkscape:pagecheckerboard="1"
     inkscape:deskcolor="#d1d1d1"
     inkscape:zoom="0.69013622"
     inkscape:cx="71.724971"
     inkscape:cy="133.30702"
     inkscape:window-width="893"
     inkscape:window-height="620"
     inkscape:window-x="0"
     inkscape:window-y="0"
     inkscape:window-maximized="1"
     inkscape:current-layer="svg14" />
  <defs
     id="defs7">
    <clipPath
       id="cdd7b2928c">
      <path
         d="M 46.167969,100.53906 H 328.75 V 274.44531 H 46.167969 Z m 0,0"
         clip-rule="nonzero"
         id="path1" />
    </clipPath>
    <clipPath
       id="d824d35228">
      <path
         d="m 138,156 h 62 v 70 h -62 z m 0,0"
         clip-rule="nonzero"
         id="path2" />
    </clipPath>
    <clipPath
       id="f9075cff4f">
      <path
         d="m 199.48437,190.10937 -59.18359,35.79688 -31.27734,-51.71094 59.1875,-35.79687 z m 0,0"
         clip-rule="nonzero"
         id="path3" />
    </clipPath>
    <clipPath
       id="ca55fb9793">
      <path
         d="m 138.66016,156.26953 1.72656,69.58203 59.09765,-35.74219 z m 0,0"
         clip-rule="nonzero"
         id="path4" />
    </clipPath>
    <clipPath
       id="6016cd8f7d">
      <path
         d="m 172,182 h 55 v 62 h -55 z m 0,0"
         clip-rule="nonzero"
         id="path5" />
    </clipPath>
    <clipPath
       id="34500529ce">
      <path
         d="m 172.84766,213.375 52.05468,-31.28516 27.33594,45.48047 -52.05469,31.28906 z m 0,0"
         clip-rule="nonzero"
         id="path6" />
    </clipPath>
    <clipPath
       id="b4c3310883">
      <path
         d="m 226.17187,243.23828 -1.34375,-61.10547 -51.98046,31.24219 z m 0,0"
         clip-rule="nonzero"
         id="path7" />
    </clipPath>
  </defs>
  <g
     clip-path="url(#cdd7b2928c)"
     id="g8"
     transform="translate(-34.917969,-89.28516)" />
  <g
     clip-path="url(#d824d35228)"
     id="g11"
     transform="matrix(1.0408552,0,0,1.0513642,-34.50821,-50.782373)"
     style="fill:#9932b3;fill-opacity:1">
    <g
       clip-path="url(#f9075cff4f)"
       id="g10"
       style="fill:#9932b3;fill-opacity:1">
      <g
         clip-path="url(#ca55fb9793)"
         id="g9"
         style="fill:#9932b3;fill-opacity:1">
        <path
           fill="#ffffff"
           d="m 199.48437,190.10937 -59.18359,35.79688 -31.27734,-51.71094 59.1875,-35.79687 z m 0,0"
           fill-opacity="1"
           fill-rule="nonzero"
           id="path9"
           style="fill:#9932b3;fill-opacity:1" />
      </g>
    </g>
  </g>
  <g
     clip-path="url(#6016cd8f7d)"
     id="g14"
     transform="matrix(0.92116299,0,0,0.9304635,-7.3960661,-21.89593)"
     style="fill:#9932b3;fill-opacity:1">
    <g
       clip-path="url(#34500529ce)"
       id="g13"
       style="fill:#9932b3;fill-opacity:1">
      <g
         clip-path="url(#b4c3310883)"
         id="g12"
         style="fill:#9932b3;fill-opacity:1">
        <path
           fill="#ffffff"
           d="m 172.84766,213.375 52.05468,-31.28516 27.33594,45.48047 -52.05469,31.28906 z m 0,0"
           fill-opacity="1"
           fill-rule="nonzero"
           id="path11"
           style="fill:#9932b3;fill-opacity:1" />
      </g>
    </g>
  </g>
  <path
     fill="#9932b3"
     d="m 279.78402,183.02989 c 0,22.34929 -17.9231,40.45335 -40.04541,40.45335 H 79.539012 c -33.169068,0 -60.098692,-27.15791 -60.098692,-60.65822 0,-33.54394 26.929624,-60.70185 60.098692,-60.70185 3.461555,0 6.879936,0.30531 10.21555,0.87595 13.723898,-24.668191 39.876288,-41.332932 69.882448,-41.332932 44.24821,0 80.1016,36.211741 80.1016,80.910342 22.12231,0 40.04541,18.10769 40.04541,40.45336"
     fill-opacity="1"
     fill-rule="nonzero"
     id="path8"
     style="fill:none;stroke:#9932b3;stroke-width:20.8305;stroke-dasharray:none;stroke-opacity:1" />
</svg>
